<?xml version="1.0" standalone="no"?><!DOCTYPE svg PUBLIC "-//W3C//DTD SVG 1.1//EN" "http://www.w3.org/Graphics/SVG/1.1/DTD/svg11.dtd"><svg t="1726976949860" class="icon" viewBox="0 0 1024 1024" version="1.1" xmlns="http://www.w3.org/2000/svg" p-id="1576" xmlns:xlink="http://www.w3.org/1999/xlink" width="200" height="200"><path d="M966.26 625.292c-0.652-17.084-3.496-35.22-4.124-41.288-11.152-110.788-25.936-196.94-54.552-305.892-7.264-26.876-36.46-50.168-64.356-51.812-24.404-1.316-48.712-2.464-72.964-3.492 4.576-106.9-100.028-207.532-244.86-208.22a2005.288 2005.288 0 0 0-20.812 0C359.76 15.276 255.16 115.912 259.74 222.812c-24.256 1.024-48.564 2.172-72.968 3.492-27.904 1.64-57.088 24.936-64.356 51.812-47.288 180.024-73.984 362.148-69.34 547.748 2.112 71.496 78.344 148.568 163.968 162.508a1925.54 1925.54 0 0 0 595.92 0c85.624-13.94 161.856-91.012 163.964-162.508 0.584-19.796-7.672-146.776-10.668-200.572zM505.112 114.588c6.592-0.032 13.184-0.032 19.772 0 71.212 0.324 125.908 48.508 127.724 104.38a5967.1 5967.1 0 0 0-275.224 0c1.82-55.872 56.516-104.052 127.728-104.38z m349.908 731.832c-0.26 16.936-17.468 33.848-37.348 36.528a2287.532 2287.532 0 0 1-605.34 0c-19.88-2.68-37.084-19.588-37.344-36.528-2.648-174.648 13.88-347.772 43.404-519.876 18.472-0.088 36.892-0.16 55.32-0.228l16.248 114.18c4.056 27.328 29.48 46.212 56.872 43.236 27.392-3.012 48.084-26.94 46.144-54.5l-7.912-103.244c86.7-0.18 173.18-0.18 259.884 0l-7.912 103.248c-1.944 27.56 18.752 51.488 46.14 54.5 27.392 2.976 52.816-15.908 56.876-43.236l16.248-114.18c18.424 0.072 36.852 0.14 55.32 0.228 16.444 95.904 28.836 192.1 36.144 288.716-0.24 2.084-0.384 4.192-0.348 6.316 0.528 24.28 8.06 200.492 7.604 224.84z" p-id="1577"></path><path d="M622.36 559.236c-63.8 32.46-117.448 74.244-159.484 121.02a511.54 511.54 0 0 0-63.064-43.792c-27.256-16.48-68.228-5.816-84.228 21.972-16.172 27.792-2.164 58.452 24.312 70.96 38.212 18.308 72.028 40.968 100.872 66.596 10.08 8.916 21.292 12.752 32.06 11.924 10.768-0.852 21.232-6.376 29.78-16.752 45.944-56.028 110.784-104.452 191.04-136.036 29.552-11.408 43.56-42.068 24.308-70.964-19.072-28.888-65.164-40.888-95.596-24.928z" p-id="1578"></path></svg>