<?xml version="1.0" standalone="no"?><!DOCTYPE svg PUBLIC "-//W3C//DTD SVG 1.1//EN" "http://www.w3.org/Graphics/SVG/1.1/DTD/svg11.dtd"><svg t="1726976944173" class="icon" viewBox="0 0 1024 1024" version="1.1" xmlns="http://www.w3.org/2000/svg" p-id="1407" xmlns:xlink="http://www.w3.org/1999/xlink" width="200" height="200"><path d="M979.848 771.976c-10.18-112.644-25.74-226.852-45.148-342.376-16.012-93.772-99.632-178-193.788-204.96-0.192-6.324-0.392-12.644-0.592-18.968-4.8-119.716-102.792-199.544-216.88-200.028a3510.96 3510.96 0 0 0-15.9-0.008c-114.088 0.376-212.02 80.144-216.76 199.92-0.164 5.184-0.324 10.368-0.48 15.556-101.104 21.388-192.272 110.624-206.88 210.356-16.448 114.888-28.932 228.656-36.188 341.136-3.624 55.76 17.88 110.364 58.06 155.196 40.268 44.704 93.216 73.144 149.836 77.296a3542.016 3542.016 0 0 0 520.72-0.244c56.848-4.224 109.58-32.784 149.196-77.612 39.516-44.952 59.872-99.54 54.804-155.264zM507.396 110.972c5.42-0.008 10.836-0.004 16.256 0.004 61.472 0.136 112.26 28.248 113.564 91.8l0.212 12.396a6515.16 6515.16 0 0 0-243.748-0.064l0.208-12.4c1.268-63.56 52.032-91.644 113.508-91.736z m345.684 756.224c-17.8 20.34-43.1 32.724-71.352 34.344a4677.548 4677.548 0 0 1-532.404 0.192c-28.488-1.616-54.332-14.24-72.904-35.02-18.564-20.808-27.904-47.612-25.82-75.744 8.54-115.304 21.324-231.628 37.096-348.796 8.688-63.672 72.344-119.756 137.716-121.116 121.2-2.208 242.4-2.288 363.604-0.236 65.952 1.276 131.444 57.776 141.768 121.94 18.692 117.72 34.5 234.448 45.896 349.944 2.74 27.768-5.808 54.124-23.6 74.492z" p-id="1408"></path><path d="M650.996 653.096h-87.448v-19.876h87.448c27.44 0 49.688-22.244 49.688-49.688 0-27.44-22.248-49.684-49.688-49.684h-42.024l56.288-56.292c19.408-19.404 19.408-50.864 0-70.268-19.4-19.408-50.868-19.408-70.264 0L510.88 491.4l-78.152-78.152c-19.404-19.408-50.864-19.408-70.268 0-19.404 19.404-19.404 50.86 0 70.268l50.328 50.328h-36.064c-27.44 0-49.688 22.244-49.688 49.684 0 27.444 22.248 49.688 49.688 49.688h87.448v19.876H376.728c-27.44 0-49.688 22.248-49.688 49.688s22.248 49.688 49.688 49.688h87.448v45.712c0 27.44 22.248 49.688 49.684 49.688s49.684-22.248 49.684-49.688v-45.712h87.448c27.44 0 49.688-22.248 49.688-49.688s-22.244-49.684-49.684-49.684z" p-id="1409"></path></svg>