<?xml version="1.0" standalone="no"?><!DOCTYPE svg PUBLIC "-//W3C//DTD SVG 1.1//EN" "http://www.w3.org/Graphics/SVG/1.1/DTD/svg11.dtd"><svg t="1726976925773" class="icon" viewBox="0 0 1024 1024" version="1.1" xmlns="http://www.w3.org/2000/svg" p-id="1072" xmlns:xlink="http://www.w3.org/1999/xlink" width="200" height="200"><path d="M952.852 274.2c-35.868-2.44-71.736-4.58-107.604-6.42a3829.9 3829.9 0 0 0-11.596-139.852c-3.008-28.752-28.144-54.336-55.648-56.632-200-16.26-400-14.044-600 6.652C107.064 85.856 37.756 152.976 28.416 224a2383.32 2383.32 0 0 0-10.476 104c-12.352 157.332-8.86 314.668 10.476 472 9.34 71.028 78.644 138.144 149.584 146.056 192 19.868 384 22.708 576 8.516a3291.1 3291.1 0 0 0 96-8.516c70.94-7.916 140.244-75.028 149.584-146.056 19.336-157.332 22.828-314.668 10.472-472-2.208-27.52-28.144-51.74-57.204-53.8zM132.62 215.172c1.592-16.732 17.28-32.084 34.06-33.388a4566.476 4566.476 0 0 1 568.532-7.86c1.748 29.768 3.26 59.536 4.544 89.304a6458.844 6458.844 0 0 0-611.856 7.6 3182.04 3182.04 0 0 1 4.72-55.656z m773.828 430.812c-32.168 1.052-64.336 1.972-96.504 2.764-17.42 0.448-31.748-13.764-31.392-30.98 0.18-8.46 0.336-16.92 0.476-25.384 0.272-17.216 15.236-31.864 32.78-31.996a34159.6 34159.6 0 0 0 97.112-0.98 3158.64 3158.64 0 0 1-2.472 86.576z m2.344-189.64c-32.364-0.436-64.724-0.82-97.084-1.152-77.244-1.044-139.66 61.26-140.416 138.288-0.084 8.576-0.176 17.152-0.28 25.732-0.644 77.012 59.064 138.36 134.384 134.732 31.676-1.404 63.348-3.036 95.02-4.896a3167.86 3167.86 0 0 1-5.036 59.776c-1.588 16.728-17.28 32.084-34.056 33.388a4596.152 4596.152 0 0 1-99.24 6.476 4566.816 4566.816 0 0 1-595.408-6.476c-16.78-1.304-32.464-16.66-34.06-33.388a3176.012 3176.012 0 0 1-10.892-434.936 11639.4 11639.4 0 0 1 784.54 0c1.204 27.488 2.044 54.972 2.528 82.456z" p-id="1073"></path></svg>